<svg xmlns="http://www.w3.org/2000/svg" width="2450" height="1540" viewBox="0 0 2450 1540" font-family="Noto Sans CJK KR, 'Malgun Gothic', 'Apple SD Gothic Neo', sans-serif">
<defs><marker id="ah-374151" markerWidth="11" markerHeight="9" refX="10" refY="4.5" orient="auto"><path d="M0,0 L11,4.5 L0,9 z" fill="#374151"/></marker><marker id="as-374151" markerWidth="11" markerHeight="9" refX="1" refY="4.5" orient="auto"><path d="M11,0 L0,4.5 L11,9 z" fill="#374151"/></marker><marker id="ah-3B82F6" markerWidth="11" markerHeight="9" refX="10" refY="4.5" orient="auto"><path d="M0,0 L11,4.5 L0,9 z" fill="#3B82F6"/></marker><marker id="as-3B82F6" markerWidth="11" markerHeight="9" refX="1" refY="4.5" orient="auto"><path d="M11,0 L0,4.5 L11,9 z" fill="#3B82F6"/></marker><marker id="ah-6366F1" markerWidth="11" markerHeight="9" refX="10" refY="4.5" orient="auto"><path d="M0,0 L11,4.5 L0,9 z" fill="#6366F1"/></marker><marker id="as-6366F1" markerWidth="11" markerHeight="9" refX="1" refY="4.5" orient="auto"><path d="M11,0 L0,4.5 L11,9 z" fill="#6366F1"/></marker><marker id="ah-16A34A" markerWidth="11" markerHeight="9" refX="10" refY="4.5" orient="auto"><path d="M0,0 L11,4.5 L0,9 z" fill="#16A34A"/></marker><marker id="as-16A34A" markerWidth="11" markerHeight="9" refX="1" refY="4.5" orient="auto"><path d="M11,0 L0,4.5 L11,9 z" fill="#16A34A"/></marker><marker id="ah-F97316" markerWidth="11" markerHeight="9" refX="10" refY="4.5" orient="auto"><path d="M0,0 L11,4.5 L0,9 z" fill="#F97316"/></marker><marker id="as-F97316" markerWidth="11" markerHeight="9" refX="1" refY="4.5" orient="auto"><path d="M11,0 L0,4.5 L11,9 z" fill="#F97316"/></marker><marker id="ah-A855F7" markerWidth="11" markerHeight="9" refX="10" refY="4.5" orient="auto"><path d="M0,0 L11,4.5 L0,9 z" fill="#A855F7"/></marker><marker id="as-A855F7" markerWidth="11" markerHeight="9" refX="1" refY="4.5" orient="auto"><path d="M11,0 L0,4.5 L11,9 z" fill="#A855F7"/></marker><marker id="ah-9CA3AF" markerWidth="11" markerHeight="9" refX="10" refY="4.5" orient="auto"><path d="M0,0 L11,4.5 L0,9 z" fill="#9CA3AF"/></marker><marker id="as-9CA3AF" markerWidth="11" markerHeight="9" refX="1" refY="4.5" orient="auto"><path d="M11,0 L0,4.5 L11,9 z" fill="#9CA3AF"/></marker><marker id="ah-0EA5E9" markerWidth="11" markerHeight="9" refX="10" refY="4.5" orient="auto"><path d="M0,0 L11,4.5 L0,9 z" fill="#0EA5E9"/></marker><marker id="as-0EA5E9" markerWidth="11" markerHeight="9" refX="1" refY="4.5" orient="auto"><path d="M11,0 L0,4.5 L11,9 z" fill="#0EA5E9"/></marker></defs><rect width="2450" height="1540" fill="#FFFFFF"/>
<rect x="30" y="160" width="2390" height="1330" rx="18" fill="none" stroke="#0EA5E9" stroke-width="2" stroke-dasharray="12,8" opacity="0.85"/>
<rect x="60" y="190" width="300" height="120" rx="18" fill="none" stroke="#0EA5E9" stroke-width="2" stroke-dasharray="5,5" opacity="0.85"/>
<text x="76" y="214" font-size="15" font-weight="bold" text-anchor="start" fill="#0EA5E9">퍼블릭 서브넷</text>
<rect x="60" y="335" width="2330" height="1135" rx="18" fill="none" stroke="#0EA5E9" stroke-width="2" stroke-dasharray="5,5" opacity="0.85"/>
<rect x="70.0" y="39.0" width="260" height="72" rx="12" fill="#F3F4F6" stroke="#9CA3AF" stroke-width="2.2"/>
<text x="200" y="71" font-size="18" font-weight="bold" text-anchor="middle" fill="#111827">브라우저</text>
<text x="200" y="93" font-size="12" font-weight="normal" text-anchor="middle" fill="#4B5563">React 프론트 · 쿠키에 JWT</text>
<rect x="410.0" y="39.0" width="300" height="72" rx="12" fill="#F3F4F6" stroke="#9CA3AF" stroke-width="2.2"/>
<text x="560" y="71" font-size="18" font-weight="bold" text-anchor="middle" fill="#111827">Google OAuth · Gmail SMTP</text>
<text x="560" y="93" font-size="12" font-weight="normal" text-anchor="middle" fill="#4B5563">auth 만 부름</text>
<rect x="750.0" y="39.0" width="300" height="72" rx="12" fill="#F3F4F6" stroke="#9CA3AF" stroke-width="2.2"/>
<text x="900" y="71" font-size="18" font-weight="bold" text-anchor="middle" fill="#111827">공공데이터 API · 집중률 API · LLM</text>
<text x="900" y="93" font-size="12" font-weight="normal" text-anchor="middle" fill="#4B5563">ingest · congestion · extract 가 부름</text>
<rect x="1080.0" y="39.0" width="260" height="72" rx="12" fill="#F3F4F6" stroke="#9CA3AF" stroke-width="2.2"/>
<text x="1210" y="71" font-size="18" font-weight="bold" text-anchor="middle" fill="#111827">GitHub</text>
<text x="1210" y="93" font-size="12" font-weight="normal" text-anchor="middle" fill="#4B5563">paw-trail/config 저장소</text>
<rect x="80.0" y="218.0" width="240" height="64" rx="12" fill="#FFFFFF" stroke="#9CA3AF" stroke-width="2.2" stroke-dasharray="9,7"/>
<text x="200" y="246" font-size="18" font-weight="bold" text-anchor="middle" fill="#111827">ALB</text>
<text x="200" y="268" font-size="12" font-weight="normal" text-anchor="middle" fill="#4B5563">예정 · HTTPS 종단</text>
<rect x="80.0" y="435.0" width="240" height="70" rx="12" fill="#FFFFFF" stroke="#9CA3AF" stroke-width="2.2" stroke-dasharray="9,7"/>
<text x="200" y="466" font-size="18" font-weight="bold" text-anchor="middle" fill="#111827">nginx  (edge)</text>
<text x="200" y="488" font-size="12" font-weight="normal" text-anchor="middle" fill="#4B5563">예정 · 정적 파일 + /api 프록시</text>
<rect x="70.0" y="660.0" width="260" height="80" rx="12" fill="#DBEAFE" stroke="#3B82F6" stroke-width="2.2"/>
<text x="200" y="696" font-size="18" font-weight="bold" text-anchor="middle" fill="#111827">gateway-server  :8080</text>
<text x="200" y="718" font-size="12" font-weight="normal" text-anchor="middle" fill="#4B5563">JWT 검증 · 라우팅 · 헤더 주입</text>
<rect x="1070.0" y="195.0" width="280" height="70" rx="12" fill="#E0E7FF" stroke="#6366F1" stroke-width="2.2"/>
<text x="1210" y="226" font-size="18" font-weight="bold" text-anchor="middle" fill="#111827">config-server  :8888</text>
<text x="1210" y="248" font-size="12" font-weight="normal" text-anchor="middle" fill="#4B5563">설정 저장소를 읽어 내려 줌</text>
<rect x="1910.0" y="195.0" width="280" height="70" rx="12" fill="#E0E7FF" stroke="#6366F1" stroke-width="2.2"/>
<text x="2050" y="226" font-size="18" font-weight="bold" text-anchor="middle" fill="#111827">eureka-server  :8761</text>
<text x="2050" y="248" font-size="12" font-weight="normal" text-anchor="middle" fill="#4B5563">이름 → 주소 장부</text>
<rect x="600" y="340" width="1230" height="770" rx="18" fill="none" stroke="#22C55E" stroke-width="2" stroke-dasharray="5,5" opacity="0.85"/>
<text x="616" y="1098" font-size="15" font-weight="bold" text-anchor="start" fill="#22C55E">도메인 서비스 14개  ─  왼쪽이 부르고 오른쪽이 받음.  진한 초록 = 자기 DB 있음 · 연한 초록 = 무상태</text>
<rect x="650.0" y="398.0" width="220" height="64" rx="10" fill="#DCFCE7" stroke="#22C55E" stroke-width="2.2"/>
<text x="760" y="424" font-size="17" font-weight="bold" text-anchor="middle" fill="#111827">review</text>
<text x="760" y="446" font-size="11" font-weight="normal" text-anchor="middle" fill="#4B5563">:8094 · DB · ↓1</text>
<rect x="650.0" y="548.0" width="220" height="64" rx="10" fill="#DCFCE7" stroke="#22C55E" stroke-width="2.2"/>
<text x="760" y="574" font-size="17" font-weight="bold" text-anchor="middle" fill="#111827">notification</text>
<text x="760" y="596" font-size="11" font-weight="normal" text-anchor="middle" fill="#4B5563">:8093 · DB · ↓3</text>
<rect x="650.0" y="698.0" width="220" height="64" rx="10" fill="#DCFCE7" stroke="#22C55E" stroke-width="2.2"/>
<text x="760" y="724" font-size="17" font-weight="bold" text-anchor="middle" fill="#111827">search</text>
<text x="760" y="746" font-size="11" font-weight="normal" text-anchor="middle" fill="#4B5563">:8087 · DB · ↓1</text>
<rect x="650.0" y="848.0" width="220" height="64" rx="10" fill="#F0FDF4" stroke="#86EFAC" stroke-width="2.2"/>
<text x="760" y="874" font-size="17" font-weight="bold" text-anchor="middle" fill="#111827">extract</text>
<text x="760" y="896" font-size="11" font-weight="normal" text-anchor="middle" fill="#4B5563">:8089 · 무상태 · → LLM</text>
<rect x="650.0" y="998.0" width="220" height="64" rx="10" fill="#DCFCE7" stroke="#22C55E" stroke-width="2.2"/>
<text x="760" y="1024" font-size="17" font-weight="bold" text-anchor="middle" fill="#111827">auth</text>
<text x="760" y="1046" font-size="11" font-weight="normal" text-anchor="middle" fill="#4B5563">:8081 · DB · ↑2 · → Google · Gmail</text>
<rect x="1100.0" y="398.0" width="220" height="64" rx="10" fill="#DCFCE7" stroke="#22C55E" stroke-width="2.2"/>
<text x="1210" y="424" font-size="17" font-weight="bold" text-anchor="middle" fill="#111827">user</text>
<text x="1210" y="446" font-size="11" font-weight="normal" text-anchor="middle" fill="#4B5563">:8082 · DB · ↓2</text>
<rect x="1100.0" y="548.0" width="220" height="64" rx="10" fill="#DCFCE7" stroke="#22C55E" stroke-width="2.2"/>
<text x="1210" y="574" font-size="17" font-weight="bold" text-anchor="middle" fill="#111827">ingest</text>
<text x="1210" y="596" font-size="11" font-weight="normal" text-anchor="middle" fill="#4B5563">:8088 · DB · → 공공 API</text>
<rect x="1100.0" y="698.0" width="220" height="64" rx="10" fill="#F0FDF4" stroke="#86EFAC" stroke-width="2.2"/>
<text x="1210" y="724" font-size="17" font-weight="bold" text-anchor="middle" fill="#111827">verdict</text>
<text x="1210" y="746" font-size="11" font-weight="normal" text-anchor="middle" fill="#4B5563">:8086 · 무상태 · ↓2</text>
<rect x="1100.0" y="998.0" width="220" height="64" rx="10" fill="#DCFCE7" stroke="#22C55E" stroke-width="2.2"/>
<text x="1210" y="1024" font-size="17" font-weight="bold" text-anchor="middle" fill="#111827">report</text>
<text x="1210" y="1046" font-size="11" font-weight="normal" text-anchor="middle" fill="#4B5563">:8092 · DB · ↑1 · ↓1</text>
<rect x="1550.0" y="398.0" width="220" height="64" rx="10" fill="#DCFCE7" stroke="#22C55E" stroke-width="2.2"/>
<text x="1660" y="424" font-size="17" font-weight="bold" text-anchor="middle" fill="#111827">place</text>
<text x="1660" y="446" font-size="11" font-weight="normal" text-anchor="middle" fill="#4B5563">:8084 · DB · ↑1</text>
<rect x="1550.0" y="548.0" width="220" height="64" rx="10" fill="#DCFCE7" stroke="#22C55E" stroke-width="2.2"/>
<text x="1660" y="574" font-size="17" font-weight="bold" text-anchor="middle" fill="#111827">pet</text>
<text x="1660" y="596" font-size="11" font-weight="normal" text-anchor="middle" fill="#4B5563">:8083 · DB · ↑1 · ↓1</text>
<rect x="1550.0" y="698.0" width="220" height="64" rx="10" fill="#DCFCE7" stroke="#22C55E" stroke-width="2.2"/>
<text x="1660" y="724" font-size="17" font-weight="bold" text-anchor="middle" fill="#111827">policy</text>
<text x="1660" y="746" font-size="11" font-weight="normal" text-anchor="middle" fill="#4B5563">:8085 · DB · ↑1</text>
<rect x="1550.0" y="848.0" width="220" height="64" rx="10" fill="#F0FDF4" stroke="#86EFAC" stroke-width="2.2"/>
<text x="1660" y="874" font-size="17" font-weight="bold" text-anchor="middle" fill="#111827">congestion</text>
<text x="1660" y="896" font-size="11" font-weight="normal" text-anchor="middle" fill="#4B5563">:8090 · 무상태 · → 집중률 API</text>
<rect x="1550.0" y="998.0" width="220" height="64" rx="10" fill="#F0FDF4" stroke="#86EFAC" stroke-width="2.2"/>
<text x="1660" y="1024" font-size="17" font-weight="bold" text-anchor="middle" fill="#111827">route</text>
<text x="1660" y="1046" font-size="11" font-weight="normal" text-anchor="middle" fill="#4B5563">:8091 · 무상태</text>
<polyline points="870.0,430 1100.0,430" fill="none" stroke="#16A34A" stroke-width="2.4" marker-end="url(#ah-16A34A)"/>
<polyline points="870.0,730 1100.0,730" fill="none" stroke="#16A34A" stroke-width="2.4" marker-end="url(#ah-16A34A)"/>
<polyline points="1320.0,430 1550.0,430" fill="none" stroke="#16A34A" stroke-width="2.4" marker-end="url(#ah-16A34A)"/>
<polyline points="1320.0,730 1550.0,730" fill="none" stroke="#16A34A" stroke-width="2.4" marker-end="url(#ah-16A34A)"/>
<polyline points="870,580 940,580 940,446 1100,446" fill="none" stroke="#16A34A" stroke-width="2.4" marker-end="url(#ah-16A34A)"/>
<polyline points="1320,746 1390,746 1390,596 1550,596" fill="none" stroke="#16A34A" stroke-width="2.4" marker-end="url(#ah-16A34A)"/>
<polyline points="1210,548 1210,505 1460,505 1460,446 1550,446" fill="none" stroke="#16A34A" stroke-width="2.4" marker-end="url(#ah-16A34A)" marker-start="url(#as-16A34A)"/>
<polyline points="870,880 980,880 980,596 1100,596" fill="none" stroke="#16A34A" stroke-width="2.4" marker-end="url(#ah-16A34A)"/>
<polyline points="870,896 1020,896 1020,805 1470,805 1470,746 1550,746" fill="none" stroke="#16A34A" stroke-width="2.4" marker-end="url(#ah-16A34A)"/>
<polyline points="870,714 1060,714 1060,380 1600,380 1600,398" fill="none" stroke="#16A34A" stroke-width="2.4" marker-end="url(#ah-16A34A)"/>
<polyline points="870,446 1000,446 1000,520 1400,520 1400,564 1550,564" fill="none" stroke="#16A34A" stroke-width="2.4" marker-end="url(#ah-16A34A)"/>
<polyline points="870,564 910,564 910,360 1620,360 1620,398" fill="none" stroke="#16A34A" stroke-width="2.4" marker-end="url(#ah-16A34A)"/>
<polyline points="1210,1062.0 1210,1074 1800,1074 1800,430 1770.0,430" fill="none" stroke="#16A34A" stroke-width="2.4" marker-end="url(#ah-16A34A)"/>
<polyline points="1100.0,1030 1085,1030 1085,414 1100,414" fill="none" stroke="#16A34A" stroke-width="2.4" marker-end="url(#ah-16A34A)"/>
<polyline points="200,111 200,218" fill="none" stroke="#3B82F6" stroke-width="2.4" marker-end="url(#ah-3B82F6)"/>
<polyline points="200,282 200,435" fill="none" stroke="#3B82F6" stroke-width="2.4" marker-end="url(#ah-3B82F6)" stroke-dasharray="7,6"/>
<polyline points="200,505 200,660" fill="none" stroke="#3B82F6" stroke-width="2.4" marker-end="url(#ah-3B82F6)"/>
<polyline points="330,700 600,700" fill="none" stroke="#3B82F6" stroke-width="3.5" marker-end="url(#ah-3B82F6)"/>
<polyline points="330,672 420,672 420,300 2110,300 2110,265" fill="none" stroke="#6366F1" stroke-width="2.4" marker-end="url(#ah-6366F1)"/>
<polyline points="1210,111 1210,195" fill="none" stroke="#6366F1" stroke-width="2.4" marker-end="url(#ah-6366F1)"/>
<polyline points="1210,265 1210,340" fill="none" stroke="#6366F1" stroke-width="2.4" marker-end="url(#ah-6366F1)"/>
<polyline points="1830,400 1990,400 1990,265" fill="none" stroke="#6366F1" stroke-width="2.4" marker-end="url(#ah-6366F1)"/>
<rect x="1900.0" y="580.0" width="300" height="80" rx="12" fill="#FFEDD5" stroke="#F97316" stroke-width="2.2"/>
<text x="2050" y="616" font-size="18" font-weight="bold" text-anchor="middle" fill="#111827">PostgreSQL  :5432</text>
<text x="2050" y="638" font-size="12" font-weight="normal" text-anchor="middle" fill="#4B5563">DB 10개 · 서비스마다 자기 것만</text>
<rect x="1900.0" y="740.0" width="300" height="80" rx="12" fill="#FFEDD5" stroke="#F97316" stroke-width="2.2"/>
<text x="2050" y="776" font-size="18" font-weight="bold" text-anchor="middle" fill="#111827">Redis  :6379</text>
<text x="2050" y="798" font-size="12" font-weight="normal" text-anchor="middle" fill="#4B5563">auth · verdict · search 만</text>
<polyline points="1830,620 1900,620" fill="none" stroke="#F97316" stroke-width="2.4" marker-end="url(#ah-F97316)"/>
<text x="1865" y="612" font-size="11" font-weight="normal" text-anchor="middle" fill="#F97316">JPA · Flyway</text>
<polyline points="1830,780 1900,780" fill="none" stroke="#F97316" stroke-width="2.4" marker-end="url(#ah-F97316)"/>
<rect x="600" y="1190" width="1230" height="150" rx="14" fill="#FFF7ED" stroke="#F97316" stroke-width="2.2"/>
<text x="620" y="1216" font-size="16" font-weight="bold" text-anchor="start" fill="#C2410C">Kafka  :9092 / :29092   ─   토픽 6개 + .dlq 6개.   발행하는 쪽  →  소비하는 쪽</text>
<text x="620" y="1250" font-size="14" font-weight="bold" text-anchor="start" fill="#7C2D12">account.created</text>
<text x="835" y="1250" font-size="13" font-weight="normal" text-anchor="start" fill="#4B5563">auth  →  user</text>
<text x="1230" y="1250" font-size="14" font-weight="bold" text-anchor="start" fill="#7C2D12">account.withdrawn</text>
<text x="1445" y="1250" font-size="13" font-weight="normal" text-anchor="start" fill="#4B5563">auth  →  user · pet · report · review · notification</text>
<text x="620" y="1278" font-size="14" font-weight="bold" text-anchor="start" fill="#7C2D12">pet.profile.updated</text>
<text x="835" y="1278" font-size="13" font-weight="normal" text-anchor="start" fill="#4B5563">pet  →  verdict</text>
<text x="1230" y="1278" font-size="14" font-weight="bold" text-anchor="start" fill="#7C2D12">place.updated</text>
<text x="1445" y="1278" font-size="13" font-weight="normal" text-anchor="start" fill="#4B5563">place  →  search</text>
<text x="620" y="1306" font-size="14" font-weight="bold" text-anchor="start" fill="#7C2D12">policy.changed</text>
<text x="835" y="1306" font-size="13" font-weight="normal" text-anchor="start" fill="#4B5563">policy  →  verdict · notification</text>
<text x="1230" y="1306" font-size="14" font-weight="bold" text-anchor="start" fill="#7C2D12">report.resolved</text>
<text x="1445" y="1306" font-size="13" font-weight="normal" text-anchor="start" fill="#4B5563">report  →  notification</text>
<polyline points="1215,1110 1215,1190" fill="none" stroke="#F97316" stroke-width="2.4" marker-end="url(#ah-F97316)" marker-start="url(#as-F97316)"/>
<rect x="1900" y="1190" width="420" height="150" rx="18" fill="none" stroke="#A855F7" stroke-width="2" stroke-dasharray="5,5" opacity="0.85"/>
<text x="1916" y="1214" font-size="15" font-weight="bold" text-anchor="start" fill="#A855F7">관측  ─  observability 프로파일</text>
<rect x="1920.0" y="1218.0" width="180" height="44" rx="12" fill="#F3E8FF" stroke="#A855F7" stroke-width="2.2"/>
<text x="2010" y="1246" font-size="13" font-weight="bold" text-anchor="middle" fill="#111827">Prometheus</text>
<rect x="2120.0" y="1218.0" width="180" height="44" rx="12" fill="#F3E8FF" stroke="#A855F7" stroke-width="2.2"/>
<text x="2210" y="1246" font-size="13" font-weight="bold" text-anchor="middle" fill="#111827">Loki</text>
<rect x="1920.0" y="1274.0" width="180" height="44" rx="12" fill="#F3E8FF" stroke="#A855F7" stroke-width="2.2"/>
<text x="2010" y="1302" font-size="13" font-weight="bold" text-anchor="middle" fill="#111827">Zipkin</text>
<rect x="2120.0" y="1274.0" width="180" height="44" rx="12" fill="#F3E8FF" stroke="#A855F7" stroke-width="2.2"/>
<text x="2210" y="1302" font-size="13" font-weight="bold" text-anchor="middle" fill="#111827">Grafana</text>
<polyline points="1830,1080 1900,1200" fill="none" stroke="#A855F7" stroke-width="2.4" marker-end="url(#ah-A855F7)" stroke-dasharray="7,6"/>
<text x="600" y="1400" font-size="14" font-weight="normal" text-anchor="start" fill="#4B5563">초록 실선 = 동기 호출 (/internal).  부르는 쪽 → 받는 쪽.  화살표 양끝 = 양방향</text>
<text x="600" y="1426" font-size="14" font-weight="normal" text-anchor="start" fill="#4B5563">Kafka 표 = 이벤트.  ↑n = 발행하는 토픽 수 · ↓n = 소비하는 토픽 수.  점선 = 예정 또는 바깥</text>
<text x="600" y="1452" font-size="14" font-weight="normal" text-anchor="start" fill="#166534">도메인 서비스는 infra 의 app 프로파일로 띄우거나 각자 IntelliJ 로 띄움.  포트는 config 저장소가 단일 출처</text>
<rect x="42" y="169" width="583" height="22" rx="4" fill="#FFFFFF" opacity="0.92"/>
<text x="46" y="184" font-size="16" font-weight="bold" text-anchor="start" fill="#0EA5E9">AWS VPC  ─  배포할 때의 모습.  로컬에서는 이 전체가 docker 네트워크 pawtrail 하나</text>
<rect x="72" y="345" width="403" height="21" rx="4" fill="#FFFFFF" opacity="0.92"/>
<text x="76" y="359" font-size="15" font-weight="bold" text-anchor="start" fill="#0EA5E9">프라이빗 서브넷  ─  바깥에서 직접 닿을 수 없음.  EC2 전부 여기</text>
<rect x="935" y="408" width="100" height="19" rx="4" fill="#FFFFFF" opacity="0.92"/>
<text x="985" y="420" font-size="13" font-weight="normal" text-anchor="middle" fill="#16A34A">/internal/users</text>
<rect x="907" y="708" width="155" height="19" rx="4" fill="#FFFFFF" opacity="0.92"/>
<text x="985" y="720" font-size="13" font-weight="normal" text-anchor="middle" fill="#16A34A">/internal/verdicts/batch</text>
<rect x="1405" y="408" width="61" height="19" rx="4" fill="#FFFFFF" opacity="0.92"/>
<text x="1435" y="420" font-size="13" font-weight="normal" text-anchor="middle" fill="#16A34A">일정 조립</text>
<rect x="1378" y="708" width="115" height="19" rx="4" fill="#FFFFFF" opacity="0.92"/>
<text x="1435" y="720" font-size="13" font-weight="normal" text-anchor="middle" fill="#16A34A">/internal/policies</text>
<rect x="960" y="452" width="120" height="19" rx="4" fill="#FFFFFF" opacity="0.92"/>
<text x="1020" y="464" font-size="13" font-weight="normal" text-anchor="middle" fill="#16A34A">/internal/favorites</text>
<rect x="1423" y="578" width="94" height="19" rx="4" fill="#FFFFFF" opacity="0.92"/>
<text x="1470" y="590" font-size="13" font-weight="normal" text-anchor="middle" fill="#16A34A">/internal/pets</text>
<rect x="1285" y="487" width="130" height="19" rx="4" fill="#FFFFFF" opacity="0.92"/>
<text x="1350" y="499" font-size="13" font-weight="normal" text-anchor="middle" fill="#16A34A">bulk  ↔  documents</text>
<rect x="995" y="578" width="90" height="19" rx="4" fill="#FFFFFF" opacity="0.92"/>
<text x="1040" y="590" font-size="13" font-weight="normal" text-anchor="middle" fill="#16A34A">/internal/raw</text>
<rect x="1172" y="787" width="147" height="19" rx="4" fill="#FFFFFF" opacity="0.92"/>
<text x="1245" y="799" font-size="13" font-weight="normal" text-anchor="middle" fill="#16A34A">/internal/policies/bulk</text>
<rect x="1229" y="362" width="203" height="19" rx="4" fill="#FFFFFF" opacity="0.92"/>
<text x="1330" y="374" font-size="13" font-weight="normal" text-anchor="middle" fill="#16A34A">/internal/places/indexing  (색인)</text>
<rect x="1078" y="502" width="144" height="19" rx="4" fill="#FFFFFF" opacity="0.92"/>
<text x="1150" y="514" font-size="13" font-weight="normal" text-anchor="middle" fill="#16A34A">/internal/pets  (스냅샷)</text>
<rect x="1277" y="342" width="107" height="19" rx="4" fill="#FFFFFF" opacity="0.92"/>
<text x="1330" y="354" font-size="13" font-weight="normal" text-anchor="middle" fill="#16A34A">/internal/places</text>
<rect x="1564" y="1081" width="172" height="19" rx="4" fill="#FFFFFF" opacity="0.92"/>
<text x="1650" y="1093" font-size="13" font-weight="normal" text-anchor="middle" fill="#16A34A">/internal/places  (목록 이름)</text>
<rect x="932" y="948" width="150" height="19" rx="4" fill="#FFFFFF" opacity="0.92"/>
<text x="1078" y="960" font-size="13" font-weight="normal" text-anchor="end" fill="#16A34A">/internal/users  (제보자)</text>
<rect x="216" y="136" width="25" height="21" rx="4" fill="#FFFFFF" opacity="0.92"/>
<text x="228" y="150" font-size="15" font-weight="normal" text-anchor="middle" fill="#3B82F6">①</text>
<rect x="336" y="676" width="246" height="19" rx="4" fill="#FFFFFF" opacity="0.92"/>
<text x="340" y="688" font-size="13" font-weight="normal" text-anchor="start" fill="#3B82F6">③ 라우팅  +  X-User-Id · X-User-Role 헤더</text>
<rect x="1381" y="282" width="238" height="19" rx="4" fill="#FFFFFF" opacity="0.92"/>
<text x="1500" y="294" font-size="13" font-weight="normal" text-anchor="middle" fill="#6366F1">② 유레카에 주소 조회  "place 어디 있어?"</text>
<rect x="1223" y="146" width="34" height="19" rx="4" fill="#FFFFFF" opacity="0.92"/>
<text x="1240" y="158" font-size="13" font-weight="normal" text-anchor="middle" fill="#6366F1">읽음</text>
<rect x="1242" y="313" width="76" height="19" rx="4" fill="#FFFFFF" opacity="0.92"/>
<text x="1280" y="325" font-size="13" font-weight="normal" text-anchor="middle" fill="#6366F1">기동 시 설정</text>
<rect x="2013" y="383" width="95" height="19" rx="4" fill="#FFFFFF" opacity="0.92"/>
<text x="2060" y="395" font-size="13" font-weight="normal" text-anchor="middle" fill="#6366F1">등록 · 하트비트</text>
<rect x="1326" y="1143" width="191" height="19" rx="4" fill="#FFFFFF" opacity="0.92"/>
<text x="1330" y="1155" font-size="13" font-weight="normal" text-anchor="start" fill="#F97316">Outbox 로 발행  ·  Inbox 로 소비</text>
<rect x="1746" y="1138" width="108" height="19" rx="4" fill="#FFFFFF" opacity="0.92"/>
<text x="1800" y="1150" font-size="13" font-weight="normal" text-anchor="middle" fill="#A855F7">로그 · 지표 · 추적</text>
<text x="2420" y="1526" font-size="12" text-anchor="end" fill="#9CA3AF">함께하개 (paw-trail) 전체 구조 · 2026.09</text>
</svg>